HIERARCHY
ROOT Hips
{
	OFFSET 0.000000 0.000000 0.000000
	CHANNELS 6 Xposition Yposition Zposition Zrotation Yrotation Xrotation 
	JOINT LHipJoint
	{
		OFFSET 0.000000 0.000000 0.000000
		CHANNELS 3 Zrotation Yrotation Xrotation
		JOINT LeftUpLeg
		{
			OFFSET 1.363060 -1.794630 0.839290
			CHANNELS 3 Zrotation Yrotation Xrotation
			JOINT LeftLeg
			{
				OFFSET 2.448110 -6.726130 0.000000
				CHANNELS 3 Zrotation Yrotation Xrotation
				JOINT LeftFoot
				{
					OFFSET 2.562200 -7.039590 0.000000
					CHANNELS 3 Zrotation Yrotation Xrotation
					JOINT LeftToeBase
					{
						OFFSET 0.157640 -0.433110 2.322550
						CHANNELS 3 Zrotation Yrotation Xrotation
						End Site
						{
							OFFSET 0.000000 0.000000 0.000000
						}
					}
				}
			}
		}
	}
	JOINT RHipJoint
	{
		OFFSET 0.000000 0.000000 0.000000
		CHANNELS 3 Zrotation Yrotation Xrotation
		JOINT RightUpLeg
		{
			OFFSET -1.305520 -1.794630 0.839290
			CHANNELS 3 Zrotation Yrotation Xrotation
			JOINT RightLeg
			{
				OFFSET -2.542530 -6.985550 0.000000
				CHANNELS 3 Zrotation Yrotation Xrotation
				JOINT RightFoot
				{
					OFFSET -2.568260 -7.056230 0.000000
					CHANNELS 3 Zrotation Yrotation Xrotation
					JOINT RightToeBase
					{
						OFFSET -0.164730 -0.452590 2.363150
						CHANNELS 3 Zrotation Yrotation Xrotation
						End Site
						{
							OFFSET 0.000000 0.000000 0.000000
						}
					}
				}
			}
		}
	}
}
MOTION
Frames: 14
Frame Time: 0.008333
0.143927 16.608996 -0.945211 13.057330 73.177895 21.276253 -9.199013 0.315586 2.790952 -13.188551 -2.945952 -38.133335 -1.816316 0.964406 29.976808 0.835427 4.563678 -2.283283 0.627000 0.000000 -20.899800 11.724349 -4.192046 -0.630229 0.061531 -8.599403 -4.955871 0.636358 -3.535434 44.733905 1.054080 22.759774 9.094200 5.704100 0.000001 -74.024100
0.284638 16.554290 -0.927482 14.060927 72.645837 21.948663 -9.121426 0.345274 2.567910 -13.935946 -2.589842 -38.361108 -1.764431 1.113920 32.340478 0.935125 4.954494 -3.577369 0.516200 0.000000 -20.592599 11.993139 -4.122510 -0.712022 -1.026241 -8.988724 -6.371311 0.313996 -3.752456 48.154306 0.905636 23.091384 10.887692 6.577200 0.000001 -73.382300
0.420213 16.496175 -0.911270 14.993527 72.103322 22.546768 -9.038700 0.374139 2.333047 -14.683159 -2.230800 -38.522539 -1.728465 1.254630 34.616302 1.028551 5.264333 -5.039295 0.362100 -0.000000 -20.396501 12.248638 -4.023074 -0.806147 -2.050405 -9.308945 -7.817904 -0.005564 -3.968561 51.615422 0.751591 22.947887 12.471905 7.250101 0.000000 -72.122801
0.550837 16.435689 -0.896748 15.848350 71.554137 23.063843 -8.953381 0.404129 2.089285 -15.421697 -1.872036 -38.602842 -1.707131 1.385727 36.767640 1.117516 5.509899 -6.620284 0.173300 -0.000000 -20.290500 12.489884 -3.895992 -0.914374 -3.004486 -9.570934 -9.286010 -0.323896 -4.187077 55.091799 0.595498 22.233225 13.762729 7.610600 -0.000000 -70.581000
0.676896 16.373944 -0.883929 16.632572 71.003350 23.508246 -8.866478 0.436696 1.840251 -16.147539 -1.521040 -38.591154 -1.698046 1.506259 38.763507 1.205245 5.718812 -8.265507 -0.040400 0.000000 -20.244200 12.718012 -3.743147 -1.037576 -3.890171 -9.788559 -10.770493 -0.644046 -4.410546 58.561645 0.437105 20.889618 14.684686 7.578199 -0.000000 -68.933800
0.798843 16.312371 -0.873059 17.328354 70.457143 23.861823 -8.782433 0.471743 1.587916 -16.845811 -1.176272 -38.483283 -1.697533 1.616192 40.586337 1.294308 5.916034 -9.921857 -0.270600 -0.000000 -20.220800 12.930174 -3.566631 -1.175051 -4.694675 -9.965690 -12.258558 -0.968497 -4.638598 61.991229 0.272287 18.898270 15.183971 7.123900 -0.000000 -67.385300
0.917231 16.252279 -0.864044 17.949846 69.922714 24.140208 -8.701550 0.509221 1.335629 -17.514337 -0.846099 -38.277703 -1.702072 1.714965 42.221912 1.387774 6.132261 -11.537312 -0.510800 -0.000000 -20.183300 13.127606 -3.367835 -1.325656 -5.421870 -10.112812 -13.746220 -1.297893 -4.870876 65.351956 0.095300 16.301332 15.208916 6.276100 -0.000000 -65.824700
1.032688 16.195037 -0.856773 18.498860 69.408206 24.347314 -8.625752 0.548433 1.086202 -18.145723 -0.534253 -37.977637 -1.708185 1.802528 43.665095 1.487165 6.389230 -13.068461 -0.756800 0.000000 -20.101600 13.309173 -3.149126 -1.486899 -6.067571 -10.234596 -15.225916 -1.630159 -5.105298 68.606110 -0.099834 13.195144 14.726862 5.120600 0.000000 -64.081101
1.145879 16.141983 -0.851105 18.982349 68.921602 24.493110 -8.556079 0.588714 0.842446 -18.735874 -0.244924 -37.589709 -1.713179 1.879035 44.916239 1.592727 6.700548 -14.481142 -1.006100 0.000000 -19.958600 13.474123 -2.913614 -1.655477 -6.630157 -10.335220 -16.692202 -1.960633 -5.339202 71.712658 -0.316975 9.731067 13.726776 3.788600 -0.000000 -61.901100
1.257450 16.094265 -0.846690 19.408242 68.470391 24.589800 -8.493180 0.629566 0.607233 -19.281636 0.018116 -37.122808 -1.715546 1.944787 45.978987 1.703203 7.068382 -15.752802 -1.256400 -0.000000 -19.751801 13.621618 -2.665684 -1.827174 -7.108121 -10.417094 -18.140355 -2.282527 -5.569262 74.627832 -0.555640 6.103168 12.228965 2.435800 0.000000 -59.021400
1.368117 16.052911 -0.843253 19.777305 68.060955 24.644005 -8.438469 0.670716 0.383243 -19.777997 0.254777 -36.588860 -1.714920 2.000460 46.861643 1.815705 7.481665 -16.873153 -1.504300 0.000000 -19.495100 13.749761 -2.410992 -1.996558 -7.496434 -10.479570 -19.567809 -2.587500 -5.790938 77.306799 -0.809446 2.525832 10.292903 1.214300 0.000000 -55.293699
1.478472 16.018782 -0.840362 20.093239 67.697780 24.665973 -8.392378 0.712344 0.173072 -20.222908 0.464768 -35.999306 -1.712371 2.046630 47.571854 1.926480 7.919665 -17.843225 -1.745400 -0.000001 -19.210200 13.857214 -2.155638 -2.157978 -7.793526 -10.521851 -20.973063 -2.866362 -5.999361 79.708025 -1.065176 -0.790379 8.009505 0.243300 -0.000000 -50.669100
1.589093 15.992497 -0.837593 20.357530 67.383816 24.663080 -8.355433 0.754894 -0.021124 -20.613862 0.650718 -35.364369 -1.709941 2.083836 48.117208 2.031246 8.354625 -18.673354 -1.974300 0.000001 -18.922100 13.942329 -1.905669 -2.305834 -7.996677 -10.542291 -22.355349 -3.109687 -6.189254 81.796186 -1.304520 -3.666302 5.493059 -0.411200 -0.000000 -45.240400
1.700447 15.974501 -0.834475 20.568683 67.119416 24.639428 -8.327989 0.799052 -0.197666 -20.948782 0.817055 -34.691840 -1.710357 2.112431 48.503563 2.125752 8.755794 -19.380710 -2.185500 -0.000001 -18.653400 14.003453 -1.666306 -2.435069 -8.103907 -10.538604 -23.712969 -3.308285 -6.355384 83.543101 -1.507324 -5.970986 2.868041 -0.743400 -0.000000 -39.217000
